<svg xmlns="http://www.w3.org/2000/svg" viewBox="0 0 226.21 191.17"><g id="Capa_2" data-name="Capa 2"><g id="Capa_1-2" data-name="Capa 1"><path d="M1,146.3c10-11.64,22.69-18.44,37.44-22,10.59-2.56,18.67-9.19,24.5-18A110.11,110.11,0,0,1,95.48,74.56c7.33-4.75,13.62-10.41,18.34-17.82a23.55,23.55,0,0,1,5.12-6c6.56-5.09,9.13-12.46,11.33-19.84,2.29-7.67,5.68-15.13,5.66-23.41,0-1.28.53-3.43,2.26-2.8,2.81,1,3.48.06,4.34-2.41s2.84-1,3.77.06c2.59,3.11,5.74,3.49,9.44,2.89a7.32,7.32,0,0,1,4.63.56c5.23,3.2,9.93,1.46,14.91-.68,5.38-2.32,7.47-1.27,9.94,4.05a16.93,16.93,0,0,1-5.42,21.43,42.42,42.42,0,0,1-9.88,6c-1.73.68-3.43,1.52-3.71,3.39-1,6.25-3,12.47-.18,18.84,1.13,2.5,2.41,3.22,4.81,1.89C185.18,52.8,201.44,49.51,216,42a7.85,7.85,0,0,1,5.63-.72c3.57.92,4.62,2.82,2.56,6.16-2.83,4.6-7.4,6.64-12.27,7.35-14.24,2.07-24.14,11.46-34.75,19.73-2.2,1.71-1.4,2.91.8,3.63,3.17,1,6.4,1.89,9.54,3,6.1,2.15,8.05,5.86,6.08,11.86a112.17,112.17,0,0,1-9.06,19.55,7.7,7.7,0,0,1-5.83,4.09c-1.89.26-4.12-.38-4-2.38.24-3.73-.24-7.78,2.48-11,.56-.66,1.36-1.12,1.93-1.78,2.22-2.54,4.94-5.61,3.68-8.74-.93-2.33-5-1.41-7.67-2.07-9.25-2.31-17-.27-24.94,5.46-8.73,6.32-19.54,8.43-30.14,10.38-6,1.11-12,2.61-17.26,6.1-2.3,1.53-4.06,3.37-4.38,6.22-1.59,14.47-7.54,27.2-15.15,39.41-5,8-3.61,16.68,2.85,23.43,1.69,1.77,2.21,3.83.36,5.58-2.34,2.21-5.12,4-8.5,2.06a5,5,0,0,1-2.43-2.63c-2.17-9.38-7.61-18.27-4.57-28.49a5.06,5.06,0,0,0-.07-4.3C61.75,159,55.7,166,55,176.81a6.5,6.5,0,0,0,1.34,4.92c1.41,1.7,2.48,3.61.93,5.7s-4.21,2.37-6.7,2.13a4.86,4.86,0,0,1-4.4-3.95,13.48,13.48,0,0,1-.27-4.16c.77-10.42,1.2-20.68,7.55-30,4.69-6.87,5.53-15.4,5.46-23.8,0-3-.61-4.35-3.93-2.63-6.64,3.42-13.87,4.78-21.22,5.79-10.94,1.5-20.33,6.38-28.46,13.76-1.43,1.29-2.88,2.55-4.32,3.82Z" style="fill:none;stroke:#7a7a7a;stroke-miterlimit:10;stroke-width:2px"/></g></g></svg>