<svg xmlns="http://www.w3.org/2000/svg" viewBox="0 0 314.61 131.99"><g id="Capa_2" data-name="Capa 2"><g id="Capa_1-2" data-name="Capa 1"><path d="M31.49,131,4.43,128.27A3.3,3.3,0,0,1,2,127.06c4.55-.38,9.08-.84,13.63-1.15,11.08-.77,22.19-1.26,33.24-2.26,10.29-.94,18.36-5.36,21.93-15.78.27-.79.74-1.52,1-2.31,7.36-24.06,25.86-32,48.81-33,10.58-.46,21.2,0,31.81.56A105.07,105.07,0,0,0,180.06,71c9.44-2,15.68-8.18,20.11-16.31s8.78-16.62,13-25c2.12-4.17,4.82-7.69,9.29-9.51a6.43,6.43,0,0,0,4.08-5.28A28.6,28.6,0,0,1,230.15,5c1-1.69,2-4.16,4.14-4,2.41.2.75,3.27,2.07,4.65,2.2-.22,2.84-4.24,5.18-2.85,1.74,1,.31,3.74.5,5.68A7.81,7.81,0,0,1,242,11c-1.37,6-.93,10.89,6.38,12.53a3.94,3.94,0,0,1,2.51,2.33c1.56,6.75,7.36,7.43,12.56,9.06,10.27,3.23,10.27,3.25,7.63,13.58s-10.37,14.21-20.36,10.06a33.69,33.69,0,0,1-4.18-1.79c-5.49-3.18-8.69-3.21-10.92,5.08a74.47,74.47,0,0,0,.52,42.07c1.09,3.51,3.24,5.12,7.09,5,5.89-.23,11.82.29,17.69-.12,13.36-1,26.1,2.36,38.89,5.22,3.3.74,6.79,1.85,8.38,5.72.88,2.13,3.36,2.61,5.47,3.22,0,8.06,0,8.06-8.09,8.06h-5.06c-16.36-5-33-4.79-49.85-3.38-13.07,1.09-26.35,3.38-39-3.62-3.56-2-8.73-3.83-13.09-2.57-14.08,4-28.19,4.21-42.49,2-1.73-.27-3.43-.26-3.89,2-.84,4.23-3.91,5.06-7.61,4.84s-7.39-.49-11.08-.71c-13.13-.77-26.18.5-39.24,1.44H89.13c-2.1-1.38-3.72-2.59-3.86-5.77s-4.19-4.88-6-7.7c-.56-.9-1.5,0-2,.65-5.76,8.12-14.41,11-23.59,12.82Z" style="fill:none;stroke:#7a7a7a;stroke-miterlimit:10;stroke-width:2px"/></g></g></svg>