<svg xmlns="http://www.w3.org/2000/svg" viewBox="0 0 235.51 170.5"><g id="Capa_2" data-name="Capa 2"><g id="Capa_1-2" data-name="Capa 1"><path d="M0,37.35c1.78-.41,2.87.61,3.66,1.95,6.62,11.17,17.46,17.84,27.07,25.92,9,7.54,16.62,10.21,27.56,2.5C68.76,60.35,82,58.79,94.73,57.09A59.92,59.92,0,0,0,118.53,49a48.39,48.39,0,0,1,19-6.91c3.85-.51,7.35-2.3,10.6-3.8,12.31-5.68,24.8-11.12,36.26-18.5a14,14,0,0,0,6.46-8.42,19.71,19.71,0,0,1,5.33-8.85c1.15-1.16,2.17-4.73,4.44-.53.94,1.74,2.4-1.16,4-.73,1.2.93.22,2,0,3.06-1.18,6.15-1.22,11.77,5.33,15.4a12.84,12.84,0,0,1,5.69,6.7c1.08,2.73,3.4,4.33,5.89,5.81,3.83,2.29,7.49,4.87,11.27,7.26s3.28,4.75.29,7.47c-5.23,4.75-10.71,5.31-16.66,1.48-2.37-1.52-4.68-3.14-7.12-4.54-1.8-1-4-1.66-5.43.28-1.71,2.4.6,3.64,2.26,4.56,5.58,3.09,8.57,8,10.19,13.92a9.14,9.14,0,0,1,.1,5.38c-.37,1.13-.75,2.34-2.2,2.3a2.28,2.28,0,0,1-2.34-2.66c.85-4.94-1.64-5.86-5.84-5.56a4.9,4.9,0,0,1-4.49-2.67c-.43-.71-.88-1.4-1.37-2.07-6.9-9.54-9-9.84-18-2.6-5.07,4.07-10.79,7.47-13,14.26a32.28,32.28,0,0,0-1.71,6.15c-.69,6.12-1.94,12.12-4.7,17.65-1.29,2.57-.92,4.64.37,7,4.07,7.39,7.87,14.94,12.08,22.25,2.52,4.36,2.28,7.88-1.13,11.67-5.91,6.56-12.91,11.88-19.38,17.79-1.26,1.15-2.77,2.2-4.47,1.21-2-1.16-2.32-3.23-1.69-5.25,1.51-4.81,2.26-10,8.8-11.32,3-.61,4.85-3.85,6.84-6.28,1.21-1.49.31-2.77-.67-4-4.25-5.29-8.53-10.56-12.72-15.9-1.56-2-2.54-2.15-3.78.33-5.43,10.79-11.17,21.44-16.41,32.32-2.38,4.95-1.38,10.38-.42,15.62.41,2.23,2.42,2.95,4,4.12,3.06,2.26,4.65,4.87,1.13,8.11h-8c-2.13-1-4.31-2.16-4.92-4.6-2.2-8.63-4.76-17.28-2-26.3q4.65-15.45,9.41-30.88c.71-2.33,1.6-4.55-2.28-4.85-11.79-.93-23-5.06-34.53-7.13C89,96,86.29,97,84.21,100.31c-8.48,13.71-17.82,26.6-30.14,37.34-6.6,5.76-6.59,13-2,19.94,2.24,3.38,1,6.16-2.93,6.84-5.86,1-9.38-1.67-9.46-7.8-.09-7.31-.53-14.65.72-21.76-10.5,3.23-15.13,11.21-17.71,20.95-.58,2.22-.78,4.25.63,6.15,2.22,3,2,5.8-.42,8.53h-8c-3.68-2.93-4.54-6.59-3.31-11.08,1.79-6.54,3.34-13.14,4.93-19.74a8.53,8.53,0,0,1,2.16-4.37c12.21-12,17.06-26.86,19.41-43.49,1.06-7.5-1-10.34-6.86-13.6C17.24,70.38,3.88,61.61,0,44.3Z" style="fill:#f07639"/></g></g></svg>