<svg xmlns="http://www.w3.org/2000/svg" viewBox="0 0 221.17 238.76"><g id="Capa_2" data-name="Capa 2"><g id="Capa_1-2" data-name="Capa 1"><path d="M145,237.76c-2.41-6.88-7.39-14.06-6.61-20.55,1.19-9.91-1.25-19.1-1.43-28.62-.08-4.33-2.37-5-5.82-4.52-5.62.7-11.22,1.5-16.85,2.06-14.87,1.49-29.2.06-42.5-7.59-4.52-2.6-8.33.51-10.9,3.47-8.58,9.92-18.87,17.85-29,25.9-3.76,3-5.3,6.1-4.16,10.72a20.5,20.5,0,0,1,.44,5c0,2.72.37,4.82,3.82,5.26,2.84.37,4.35,2.65,4.09,5.43-.31,3.43-3.26,2.71-5.46,2.75-11.49.2-13.62-1.86-13.52-13.56,0-4.65.52-9.3.9-13.95a10.5,10.5,0,0,1,2.69-6.32,39.94,39.94,0,0,1,3.2-3.84c10.47-9,11.85-20.37,8.76-33.05-1.84-7.53-4-14.6-9.93-20.27-4.71-4.52-7.41-10.61-10-16.62a14.52,14.52,0,0,1-.76-7.87c.29-2.06,0-5.42,1.92-5.71,2.6-.4,2.22,3.06,3,4.88,3.1,7.43,8.91,12.27,15.44,16.4a5.89,5.89,0,0,0,6.19.31c18.57-9.85,38.88-10.72,59-9.33,16.34,1.14,29.05-4.87,41.26-14.08,6.35-4.79,9.43-18,5.78-25.14-1.74-3.42-3.74-6.69-5.56-10.07-.56-1-.95-2.19.1-3.22s2.14-.55,3.22,0a7.93,7.93,0,0,1,1.3.74c8.29,6.15,17.59,8.35,27.78,7.23,5.3-.59,9.59,1.16,12.18,6,2.84,5.3,8.37,6.23,13.1,8.48,6.89,3.27,6.75,3.65,3.31,10.24-2.67,5.11-6.15,7.46-11.92,6.75-3-.36-6,.25-9-.13-5.82-.75-8.62,1.88-10.73,7.16-3,7.6-1.67,15.5-2.72,23.2-.8,5.85-2.07,11.52-4.93,16.67-3.71,6.66-4.8,14.55-9.81,20.62-.71.85-.53,2.56-.53,3.88,0,10.5-.06,21,0,31.49,0,4.52,1.14,8.3,5.69,10.79a9.25,9.25,0,0,1,5,9.12Z" style="fill:none;stroke:#7a7a7a;stroke-miterlimit:10;stroke-width:2px"/><path d="M220.07,26.69c-3.12,5.66-9,6.87-14,9.84-6.12,3.64-12,4.84-18.56,6.16-4.21.85-7.87,4.19-11.88,6.21-2.31,1.15-4.65,1.6-4.84-2.26-.15-2.87-1.81-2.12-3.46-1.39-21.25,9.37-43.62,9.65-66.18,8.07-11-.77-21.86-2.55-32.8-2.75-11.75-.22-20.14-6.4-27.83-13.84-3.69-3.56-7.3-4.73-12.25-5-9.14-.53-18.56-.22-27-4.83L1,23.76a10.32,10.32,0,0,1,4.73-1.39c8.62-1.23,17.3-.46,25.94-.89,3.45-.17,6.59-.73,8.49-4.15,3.57-6.41,9.53-9.43,16.22-11.61,9.46-3.08,19.13-1.92,28.76-2,9.29-.12,18.61.7,27.87-.46,15.49-2.95,24.49-2.95,36.49,0,6.71,1.49,14,5,20,8.76a2.62,2.62,0,0,0,4-2.13c.24-5.45,3.1-3.78,6-2.46,5.1,2.34,9.84,5.69,15.63,6.17,4.38.37,8.47,1,11.12,5a4.07,4.07,0,0,0,3.44,1.78,27.3,27.3,0,0,1,8.59,1.77Z" style="fill:none;stroke:#7a7a7a;stroke-miterlimit:10;stroke-width:2px"/></g></g></svg>