<svg xmlns="http://www.w3.org/2000/svg" viewBox="0 0 209 233"><g id="Capa_2" data-name="Capa 2"><g id="Capa_1-2" data-name="Capa 1"><path d="M150,233a11.18,11.18,0,0,0-1.88-.62c-7.36-.95-5.79-1.66-8.66-8-3.71-8.13-3.08-16-3.32-24.22-.22-7.79-1.9-15.54-2.21-23.34-.19-4.83-2.11-6.16-6.45-5.61-3.3.42-6.63.53-9.94.92-13.59,1.6-26.42-2.38-39.4-5.26-.49-.11-1-.25-1.46-.34-12.51-2.31-12.6-2.35-18.13,8.74-2.16,4.32-5.54,7.49-9,10.54-6.54,5.67-13.07,11.39-19.93,16.68-3.42,2.64-5.08,5.45-4.49,9.73a46.92,46.92,0,0,1,.21,6.5c0,2.6.74,4.51,3.72,5s4.84,2.76,4.46,5.67c-.46,3.47-3.65,2.68-6,2.71-1.82,0-3.65-.28-5.48-.37-4.76-.24-6.9-3.2-7-7.49-.18-6.16,0-12.33.23-18.48a13.12,13.12,0,0,1,3.82-9c.93-.93,1.58-2.17,2.57-3,15.31-13.62,9.8-29.37,4.51-45a12.82,12.82,0,0,0-3.22-4.39c-5.21-5.33-8.74-11.71-12-18.29-2.26-4.49-1.64-9.06-.88-13.69.17-1,.39-2.22,1.55-2.25s1.56,1.16,1.73,2.14c1.19,6.91,6.06,11.32,10.75,15.83,5.37,5.18,8.8,6,15.08,2.13,12.94-8,27.18-7.92,41.55-7.7,10.16.15,20.33.16,30.49.11,3.08,0,5.79-1.47,8.34-3.09,5.21-3.3,10.43-6.58,15.56-10,7.76-5.2,10.9-18.58,6.37-26.74-1.45-2.63-3-5.19-4.42-7.84-.76-1.41-2.12-3.05-.46-4.5s3.12,0,4.57.75c.73.39,1.43.85,2.16,1.25,6.73,3.64,13.17,7.32,21.59,5.75,7.27-1.35,13.71,1,17.76,8.13,2.41,4.26,7.72,4.27,11.49,6.58,2.26,1.38,5.95,1.59,5.65,5.38s-6.64,10.91-9.59,11c-5.17.12-10.35.26-15.5,0-4-.21-6.19,1.49-7.68,5-2.18,5.1-4.09,10.27-3.7,15.9.78,11.55-2.34,22.14-7.78,32.11-2.69,4.92-3,10.94-7.31,15.12-1.1,1.08-.77,2.85-.77,4.34,0,10-.13,20,.05,30,.09,4.92,1.11,9.31,6.28,12.08,3.15,1.69,5.47,5,4.35,9.25Z" style="fill:#f07639"/><path d="M209,25c-7.37,3.44-15.33,5.66-21.91,10.74a2.91,2.91,0,0,1-2.42.24c-6.31-2.49-11.39.32-16.88,3.07-4.11,2.07-9,2.81-12.36-2.31-1.48-2.27-3.4-1.57-5.15-.24-2.38,1.81-4.64,3.8-7.07,5.52-4.24,3-8.35,3.94-13.29.69s-10.62-1.54-15.95,0c-5.94,1.69-11.88,3.43-18.12,1.65-1.59-.46-3.42-.72-4.64-1.7-8.6-6.9-17.74-2.88-26.58-1.17-3.48.67-7,2-10.18.58C46.52,38.53,37.4,37.43,31,30.79c-5.78-6-13.59-4.43-20.67-5.47-3.43-.5-7,.2-10.32-1.32V21c2.74-2.18,5.78-2.49,9.29-2.56,8-.17,16.91,1.8,22.16-7.26a6.8,6.8,0,0,1,3.64-2.52c11.47-3.66,22-11.84,35.41-5,7.87,4,16.17,1,23.5-3.62h47a18.71,18.71,0,0,1,9.18,7.37c1.09,1.6,2.55,2.66,4.64,2.29s1.72-2.1,2-3.52c.65-3.35,3.15-3.61,5.76-3.11a20.52,20.52,0,0,1,10.49,5.52c2.63,2.55,5.49,3.78,9,3.16,5.6-1,10.86-.68,15.7,2.73a6.88,6.88,0,0,0,3.34,1A10.35,10.35,0,0,1,209,20Z" style="fill:#f07639"/></g></g></svg>