<svg xmlns="http://www.w3.org/2000/svg" viewBox="0 0 211.78 237.55"><g id="Capa_2" data-name="Capa 2"><g id="Capa_1-2" data-name="Capa 1"><path d="M153,236.55a6.74,6.74,0,0,0-2.37-.65c-6.17.72-8.56-2.13-7.85-8.07a1.6,1.6,0,0,0-.12-1c-8-11.12-.9-23.84-3.72-35.55-1-4.16-.84-8.59-1.26-12.9-.33-3.47-2.29-5-5.75-4.58a36.19,36.19,0,0,0-5.9,1c-8.71,2.72-17,1.43-25.27-2C90.47,168.6,79.92,165,69.53,161c-2-.79-3.25-.65-3.43,1.72-1.41,18.12-14.32,28.09-27,38.21a14.78,14.78,0,0,1-2.37,1.84C28.44,207,26.9,214,28.23,222.47c.41,2.59,1,4.36,3.92,4.88s4.74,2.78,4.21,5.78-3.45,2.54-5.72,2.56a35.56,35.56,0,0,1-4.49-.24c-6.41-.71-8.14-2.41-8.34-8.82-.17-5.15-.06-10.32.11-15.48.13-4.44,1.33-8.54,4.71-11.73.36-.34.61-.8,1-1.13,15.66-13.54,11.17-29.59,5.53-45.68-.68-1.94-2.32-3.65-3.79-5.2-4.88-5.14-8.3-11.21-11.52-17.44-2.3-4.42-2.12-9-1.05-13.63.25-1.09.16-2.61,1.7-2.61,1.1,0,1.49,1.28,1.65,2.24,1.21,6.92,6.21,11.21,10.86,15.74,4.31,4.2,8.92,5.84,14.87,2.86C55,128,69,126,83.56,126.36c9.15.24,18.32-.1,27.48,0a19.49,19.49,0,0,0,10.9-3c5.48-3.47,11-6.87,16.38-10.54,7.29-5,10.38-18.3,6.21-26-1.5-2.78-3.16-5.48-4.66-8.27-.76-1.41-2.11-3-.45-4.5s3.11,0,4.56.77c1,.54,2.05,1.11,3,1.72,6.2,3.75,12.4,6.57,20.18,5.25,7.49-1.27,14.1.85,18.3,8.15,2.44,4.25,7.72,4.27,11.5,6.58,2.24,1.38,5.94,1.58,5.61,5.4s-6.6,10.9-9.58,11c-5.33.12-10.66.18-16,0-3.47-.11-5.63,1.26-7,4.42-2.33,5.4-4.23,10.88-3.89,16.87a51,51,0,0,1-5.89,27.5c-3.36,6.27-4.52,13.58-9.17,19.24-1,1.21-.77,2.86-.77,4.35,0,10-.12,20,0,30,.08,4.91,1,9.37,6.22,12.08a8.31,8.31,0,0,1,4.41,9.3Z" style="fill:none;stroke:#7a7a7a;stroke-miterlimit:10;stroke-width:2px"/><path d="M210.72,27.69c-1.95,2.29-3.5,5.09-6.71,5.86-4.71,1.14-9.78,1.05-13,6-1.14,1.77-4.42,1.49-6.65,1-5.65-1.32-10.44.8-15.28,3.11-1.95.93-4,1.73-6,2.46-2.22.8-3.72.42-4.39-2.31-1.09-4.49-3.63-5.21-7-2.22a18.71,18.71,0,0,0-1.86,2c-6,7.43-11.6,8.88-20.35,4.77a13.44,13.44,0,0,0-8.66-1c-5.06.93-10.19,1.46-15.29,2.21-5.6.82-10-1.71-14.1-5-6.28-5-17.36-4.09-22.45,2-2.17,2.59-4.7,3.6-7.93,2.76-7.38-1.92-14.25-5.39-21.81-6.87-3.17-.62-5.13-3.7-6.69-6.43-2.26-4-5.54-5.11-9.9-5.34C15.39,30.27,8.06,30,1.06,27.57l-.05-2c4.71-1.93,9.69-2,14.67-2.29,7.35-.42,14.92,0,20.39-6.72,1.44-1.77,4.2-2.65,6.51-3.48C48.35,11,54.26,9.26,60,7.18c4-1.45,7.49-.59,9.7,2.75,2.6,3.93,6,4.44,10.23,4.5,4.7.06,8.78-.56,12.23-4.09,2.7-2.77,6.41-4.09,9.82-5.79,7.66-4.95,13.5,8.5,31.06-2.61,3.18-2,7.53-.52,10.38,1.94a126,126,0,0,1,10.07,9.42c1.41,1.62,4.31,3.52,4.93.23,1.28-6.88,5.15-5.27,9.14-3.65,7.25,2.94,14.29,6.46,22.51,5.48A4.17,4.17,0,0,1,194,17.27c2.28,3.45,5.53,4.37,9.42,4.2,2.4-.1,4.54.93,6.6,2.1Z" style="fill:none;stroke:#7a7a7a;stroke-miterlimit:10;stroke-width:2px"/></g></g></svg>