<svg xmlns="http://www.w3.org/2000/svg" viewBox="0 0 63.72 59.25"><defs><style>.cls-1{fill:#fff;}</style></defs><g id="Capa_2" data-name="Capa 2"><g id="Capa_1-2" data-name="Capa 1"><path class="cls-1" d="M55.58,24.71c-1.72.43-2.53,2.13-3.2,3.71a11.6,11.6,0,0,0-.35,2c-.18,2.13.23,8.29,3.86,7,4.19-1.51,7.43-6.93,4.14-10.8C59,25.32,57.29,24.28,55.58,24.71Zm-3-.71a4.53,4.53,0,0,1,2.1-1.08,6.2,6.2,0,0,1,6.84,1.79c4.63,4.8,1.58,12.63-4.39,14.71-5.51,1.92-7.58-4.22-7.25-8.62C50,28.37,50.68,25.72,52.53,24Z"/><path class="cls-1" d="M38.52,7.36a.77.77,0,0,1-.79.54c0,.19-.1.36-.15.53-.75,3.7-1,8.8,1.31,12,3.4,4.7,9-3.63,9.4-6.77S48.14,6.8,46,4.24C42.93.48,39.92,4.06,38.52,7.36Zm-2.84.79c.77-3,4.39-9.58,8.21-7.87a4.76,4.76,0,0,1,1.1.3c3.6,1.52,5.47,5.88,5.8,9.56.41,4.67-1,8.91-4.71,11.92-1.83,1.47-4.63,3.08-7,1.75C34.2,21.05,34.48,12.81,35.68,8.15Z"/><path class="cls-1" d="M10.82,45.09c-.46,1.13-2.85,7-.46,7.84,5.95,2.12,12.52-4.41,18.73-3,4.4,1,8,3.65,12.16,5.17,8.3,3,13.14-4.32,8.43-11.44-2.77-4.19-6.5-7.92-11.27-9.77-6.88-2.67-12-.94-17.89,2.94a.83.83,0,0,1-1.29-.65,30.06,30.06,0,0,0-2.66,2C14.38,40.07,11.92,42.34,10.82,45.09ZM7.17,52.38c-2-10.94,10.75-20.5,21.16-22.47,9.37-2.1,20.43,4.46,24.8,13.39,2.73,5.58,2.41,11.51-3.36,14.88-5.56,3.26-12.07-1.72-16.92-4-6.38-3-11.25-.17-17.64,1.09C12.39,55.8,7.86,56.18,7.17,52.38Z"/><path class="cls-1" d="M27.56,4.45c-.81-2.21-1.73-2.07-3.74-1.58a.65.65,0,0,1-.75-.35,4.91,4.91,0,0,0-1.2.78,12.15,12.15,0,0,0-3.35,5.32c-1,2.91-2.22,8.83.62,11.19,4.7,3.9,8.28-4.45,8.74-7.85C28.21,9.58,28.41,6.76,27.56,4.45ZM19.7,22.67c-5.45-1.48-4.77-9.7-3.51-13.75,1-3.2,5.14-10.06,9.38-8.7A3.43,3.43,0,0,1,28.7,1.54c1.79,2.37,2.07,5.69,1.86,8.57C30.17,15.67,27.07,24.69,19.7,22.67Z"/><path class="cls-1" d="M8.4,36.47c-1.92.81-4.74,1.6-6.5-.06-3.42-3.23-1.52-9.85.25-13.47.9-1.84,4-6.52,6.46-5.65a4,4,0,0,1,4.44,1.52,12.45,12.45,0,0,1,1.75,9.68A10.65,10.65,0,0,1,8.4,36.47Zm3.66-6.79c1.16-3.38,1-12.52-4.6-9.8a.74.74,0,0,1-.92-.27C3.48,22.47,1.7,31.34,2.7,33.69,4.59,38.08,11.23,32.09,12.06,29.68Z"/></g></g></svg>